<?xml version="1.0" encoding="UTF-8"?>
<svg width="1024" height="1024" viewBox="0 0 1024 1024" fill="none" xmlns="http://www.w3.org/2000/svg">
  <defs>
    <linearGradient id="bg" x1="512" y1="96" x2="512" y2="928" gradientUnits="userSpaceOnUse">
      <stop offset="0" stop-color="#A8DBFF"/>
      <stop offset="0.52" stop-color="#4B96F0"/>
      <stop offset="1" stop-color="#0F46B8"/>
    </linearGradient>
    <radialGradient id="glow" cx="0" cy="0" r="1" gradientUnits="userSpaceOnUse"
      gradientTransform="translate(512 420) rotate(90) scale(360 320)">
      <stop offset="0" stop-color="white" stop-opacity="0.28"/>
      <stop offset="1" stop-color="white" stop-opacity="0"/>
    </radialGradient>
    <linearGradient id="bar1" x1="0" y1="618" x2="0" y2="734" gradientUnits="userSpaceOnUse">
      <stop offset="0" stop-color="#DCEEFF"/>
      <stop offset="1" stop-color="#BEDCFF"/>
    </linearGradient>
    <linearGradient id="bar2" x1="0" y1="558" x2="0" y2="734" gradientUnits="userSpaceOnUse">
      <stop offset="0" stop-color="#D4E8FF"/>
      <stop offset="1" stop-color="#AFCFEF"/>
    </linearGradient>
    <linearGradient id="bar3" x1="0" y1="505" x2="0" y2="734" gradientUnits="userSpaceOnUse">
      <stop offset="0" stop-color="#8ED0FF"/>
      <stop offset="1" stop-color="#4A96EB"/>
    </linearGradient>
    <linearGradient id="bar4" x1="0" y1="438" x2="0" y2="734" gradientUnits="userSpaceOnUse">
      <stop offset="0" stop-color="#76C6FF"/>
      <stop offset="1" stop-color="#226EDB"/>
    </linearGradient>
    <filter id="shadow" x="52" y="56" width="920" height="920" filterUnits="userSpaceOnUse" color-interpolation-filters="sRGB">
      <feDropShadow dx="0" dy="14" stdDeviation="18" flood-color="#0A2B74" flood-opacity="0.18"/>
    </filter>
    <filter id="softShadow" x="260" y="320" width="504" height="420" filterUnits="userSpaceOnUse" color-interpolation-filters="sRGB">
      <feDropShadow dx="0" dy="12" stdDeviation="14" flood-color="#123E9A" flood-opacity="0.20"/>
    </filter>
  </defs>

  <g filter="url(#shadow)">
    <rect x="96" y="96" width="832" height="832" rx="170" fill="url(#bg)"/>
    <rect x="99" y="99" width="826" height="826" rx="167" stroke="#84C6FF" stroke-width="6" opacity="0.85"/>
    <rect x="109" y="109" width="806" height="806" rx="157" stroke="white" stroke-opacity="0.12" stroke-width="2"/>
    <ellipse cx="512" cy="390" rx="290" ry="250" fill="url(#glow)"/>
  </g>

  <g opacity="0.98">
    <path d="M470 322C470 309 484 301 495 307L624 380C635 386 635 402 624 408L495 481C484 487 470 479 470 466V322Z"
          fill="#F4F7FB"/>
  </g>

  <g filter="url(#softShadow)">
    <rect x="340" y="618" width="78" height="116" rx="12" fill="url(#bar1)"/>
    <rect x="454" y="558" width="78" height="176" rx="12" fill="url(#bar2)"/>
    <rect x="568" y="505" width="78" height="229" rx="12" fill="url(#bar3)"/>
    <rect x="682" y="438" width="78" height="296" rx="12" fill="url(#bar4)"/>
    <rect x="340.75" y="618.75" width="76.5" height="114.5" rx="11.25" stroke="white" stroke-opacity="0.22" stroke-width="1.5"/>
    <rect x="454.75" y="558.75" width="76.5" height="174.5" rx="11.25" stroke="white" stroke-opacity="0.22" stroke-width="1.5"/>
    <rect x="568.75" y="505.75" width="76.5" height="227.5" rx="11.25" stroke="white" stroke-opacity="0.18" stroke-width="1.5"/>
    <rect x="682.75" y="438.75" width="76.5" height="294.5" rx="11.25" stroke="white" stroke-opacity="0.18" stroke-width="1.5"/>
  </g>
</svg>
